<svg width="36" height="36" viewBox="0 0 36 36" fill="none" xmlns="http://www.w3.org/2000/svg">
<g clip-path="url(#clip0_447_826)">
<path d="M22.7059 27.4097C21.2674 28.2403 19.7588 28.4441 18.1803 28.0211C16.6018 27.5981 15.3972 26.6674 14.5667 25.2288L8.87919 15.3778C8.28336 14.3458 8.14075 13.2501 8.45136 12.0909C8.76197 10.9317 9.43329 10.0542 10.4653 9.45833C11.4973 8.8625 12.5929 8.71989 13.7522 9.0305C14.9114 9.34112 15.7889 10.0124 16.3847 11.0444L21.5306 19.9573C21.9097 20.614 22.0035 21.3 21.8118 22.0153C21.6202 22.7306 21.196 23.2778 20.5393 23.6569C19.8825 24.0361 19.1965 24.1299 18.4813 23.9382C17.766 23.7466 17.2188 23.3224 16.8396 22.6656L11.6938 13.7528L13.1011 12.9403L18.2469 21.8531C18.4004 22.1189 18.619 22.2896 18.9028 22.3651C19.1863 22.4416 19.4609 22.4031 19.7268 22.2496C19.9926 22.0962 20.1636 21.8774 20.2397 21.5932C20.3156 21.3101 20.2768 21.0356 20.1233 20.7698L14.9775 11.8569C14.5983 11.2002 14.0511 10.776 13.3358 10.5844C12.6205 10.3927 11.9345 10.4865 11.2778 10.8656C10.6211 11.2448 10.1969 11.792 10.0052 12.5073C9.81356 13.2225 9.90732 13.9085 10.2865 14.5653L15.974 24.4163C16.5698 25.4483 17.4473 26.1196 18.6066 26.4303C19.7658 26.7409 20.8614 26.5983 21.8934 26.0024C22.9254 25.4066 23.5968 24.5291 23.9074 23.3698C24.218 22.2106 24.0754 21.115 23.4795 20.083L17.792 10.2319L19.1993 9.41944L24.8868 19.2705C25.7174 20.709 25.9212 22.2176 25.4982 23.7961C25.0753 25.3746 24.1445 26.5792 22.7059 27.4097Z" fill="#4D4D4D"/>
</g>
<defs>
<clipPath id="clip0_447_826">
<rect width="26" height="26" fill="white" transform="translate(0 13) rotate(-30)"/>
</clipPath>
</defs>
</svg>
