<svg width="26" height="26" viewBox="0 0 26 26" fill="none" xmlns="http://www.w3.org/2000/svg">
<path d="M13 18.4167C14.1492 18.4167 15.2514 17.9601 16.0641 17.1475C16.8767 16.3348 17.3333 15.2326 17.3333 14.0833H8.66663C8.66663 15.2326 9.12317 16.3348 9.93583 17.1475C10.7485 17.9601 11.8507 18.4167 13 18.4167ZM10.8333 10.8333C10.8333 11.1207 10.7192 11.3962 10.516 11.5994C10.3128 11.8025 10.0373 11.9167 9.74996 11.9167C9.46264 11.9167 9.18709 11.8025 8.98393 11.5994C8.78076 11.3962 8.66663 11.1207 8.66663 10.8333C8.66663 10.546 8.78076 10.2705 8.98393 10.0673C9.18709 9.86414 9.46264 9.75 9.74996 9.75C10.0373 9.75 10.3128 9.86414 10.516 10.0673C10.7192 10.2705 10.8333 10.546 10.8333 10.8333ZM16.25 11.9167C16.5373 11.9167 16.8128 11.8025 17.016 11.5994C17.2192 11.3962 17.3333 11.1207 17.3333 10.8333C17.3333 10.546 17.2192 10.2705 17.016 10.0673C16.8128 9.86414 16.5373 9.75 16.25 9.75C15.9626 9.75 15.6871 9.86414 15.4839 10.0673C15.2808 10.2705 15.1666 10.546 15.1666 10.8333C15.1666 11.1207 15.2808 11.3962 15.4839 11.5994C15.6871 11.8025 15.9626 11.9167 16.25 11.9167Z" fill="#4D4D4D"/>
<path fill-rule="evenodd" clip-rule="evenodd" d="M23.8333 13.0013C23.8333 18.9846 18.9832 23.8346 13 23.8346C7.01671 23.8346 2.16663 18.9846 2.16663 13.0013C2.16663 7.01805 7.01671 2.16797 13 2.16797C18.9832 2.16797 23.8333 7.01805 23.8333 13.0013ZM21.6666 13.0013C21.6666 15.2998 20.7535 17.5042 19.1282 19.1296C17.5029 20.7549 15.2985 21.668 13 21.668C10.7014 21.668 8.49702 20.7549 6.8717 19.1296C5.24639 17.5042 4.33329 15.2998 4.33329 13.0013C4.33329 10.7028 5.24639 8.49836 6.8717 6.87304C8.49702 5.24773 10.7014 4.33464 13 4.33464C15.2985 4.33464 17.5029 5.24773 19.1282 6.87304C20.7535 8.49836 21.6666 10.7028 21.6666 13.0013Z" fill="#4D4D4D"/>
</svg>
